<svg xmlns="http://www.w3.org/2000/svg" width="634" height="96" viewBox="0 0 634 96" role="img" aria-label="Ciphers v1.0.3">
  <title>Ciphers v1.0.3</title>
  <defs>
    <linearGradient id="g" x1="0" y1="0" x2="1" y2="1">
      <stop offset="0%" stop-color="#00FFCC"/>
      <stop offset="55%" stop-color="#1FB6FF"/>
      <stop offset="100%" stop-color="#8A2BE2"/>
    </linearGradient>
    <filter id="glow" x="-30%" y="-30%" width="160%" height="160%">
      <feGaussianBlur stdDeviation="3" result="b"/>
      <feMerge><feMergeNode in="b"/><feMergeNode in="SourceGraphic"/></feMerge>
    </filter>
  </defs>
  <g transform="translate(36,8)" fill="url(#g)" filter="url(#glow)">
    <path d="M176 0 Q143 0 115 16 Q88 32 72 59 Q56 87 56 120 L56 600 Q56 633 72 660 Q88 688 115 704 Q143 720 176 720 L774 720 L774 639 L176 639 Q160 639 148 627 Q137 616 137 600 L137 120 Q137 104 148 92 Q160 81 176 81 L774 81 L774 0 L176 0 Z" transform="translate(0.00,70.0) scale(0.05104,-0.05104)"/>
    <path d="M66 0 L66 720 L148 720 L148 0 L66 0 Z" transform="translate(49.95,70.0) scale(0.05104,-0.05104)"/>
    <path d="M56 0 L56 719 L656 719 Q689 719 716 702 Q744 686 760 659 Q776 632 776 599 L776 388 Q776 355 760 328 Q744 301 716 284 Q689 268 656 268 L137 268 L137 0 L56 0 M176 350 L656 350 Q672 350 683 361 Q695 372 695 388 L695 599 Q695 615 683 626 Q672 638 656 638 L176 638 Q160 638 148 626 Q137 615 137 599 L137 388 Q137 372 148 361 Q160 350 176 350 Z" transform="translate(68.87,70.0) scale(0.05104,-0.05104)"/>
    <path d="M57 0 L57 720 L138 720 L138 401 L713 401 L713 720 L795 720 L795 0 L713 0 L713 319 L138 319 L138 0 L57 0 Z" transform="translate(117.24,70.0) scale(0.05104,-0.05104)"/>
    <path d="M58 0 L58 720 L715 720 L715 639 L139 639 L139 401 L602 401 L602 319 L139 319 L139 81 L715 81 L715 0 L58 0 Z" transform="translate(168.68,70.0) scale(0.05104,-0.05104)"/>
    <path d="M664 0 L429 280 L535 280 L771 1 L771 0 L664 0 M56 0 L56 719 L656 719 Q689 719 716 702 Q744 686 760 659 Q776 632 776 599 L776 388 Q776 355 760 328 Q744 301 716 284 Q689 268 656 268 L137 268 L137 0 L56 0 M176 350 L656 350 Q672 350 683 361 Q695 372 695 388 L695 599 Q695 615 683 626 Q672 638 656 638 L176 638 Q160 638 148 626 Q137 615 137 599 L137 388 Q137 372 148 361 Q160 350 176 350 Z" transform="translate(215.77,70.0) scale(0.05104,-0.05104)"/>
    <path d="M171 0 Q138 0 110 16 Q83 32 67 59 Q51 87 51 120 L51 148 L132 148 L132 120 Q132 104 143 92 Q155 81 171 81 L651 81 Q667 81 678 92 Q690 104 690 120 L690 281 Q690 297 678 308 Q667 319 651 319 L171 319 Q138 319 110 335 Q83 352 67 379 Q51 406 51 439 L51 600 Q51 633 67 660 Q83 688 110 704 Q138 720 171 720 L651 720 Q684 720 711 704 Q739 688 755 660 Q771 633 771 600 L771 572 L690 572 L690 600 Q690 616 678 627 Q667 639 651 639 L171 639 Q155 639 143 627 Q132 616 132 600 L132 439 Q132 423 143 412 Q155 401 171 401 L651 401 Q684 401 711 384 Q739 368 755 341 Q771 314 771 281 L771 120 Q771 87 755 59 Q739 32 711 16 Q684 0 651 0 L171 0 Z" transform="translate(265.88,70.0) scale(0.05104,-0.05104)"/>
    <path d="M452 0 L452 0 L35 720 L130 720 L499 79 L867 720 L962 720 L546 0 L452 0 Z" transform="translate(344.63,70.0) scale(0.05104,-0.05104)"/>
    <path d="M219 0 L219 0 L219 628 L108 495 L1 495 L190 720 L302 720 L302 0 L219 0 Z" transform="translate(403.82,70.0) scale(0.05104,-0.05104)"/>
    <path d="M54 0 L54 0 L54 82 L136 82 L136 0 L54 0 Z" transform="translate(431.77,70.0) scale(0.05104,-0.05104)"/>
    <path d="M178 0 Q144 0 116 16 Q89 33 73 60 Q57 88 57 121 L57 598 Q57 632 73 659 Q89 687 116 703 Q144 720 178 720 L663 720 Q696 720 723 703 Q751 687 767 659 Q784 632 784 598 L784 121 Q784 88 767 60 Q751 33 723 16 Q696 0 663 0 L178 0 L178 0 M149 82 L149 82 L663 82 Q679 82 690 93 Q702 105 702 121 L702 538 L149 82 M139 181 L139 181 L691 637 L178 637 Q162 637 150 625 Q139 614 139 598 L139 181 Z" transform="translate(450.69,70.0) scale(0.05104,-0.05104)"/>
    <path d="M54 0 L54 0 L54 82 L136 82 L136 0 L54 0 Z" transform="translate(501.26,70.0) scale(0.05104,-0.05104)"/>
    <path d="M175 0 Q141 0 113 16 Q86 33 69 60 Q53 88 53 121 L53 137 L136 137 L136 121 Q136 105 147 93 Q159 82 175 82 L660 82 Q676 82 687 93 Q699 105 699 121 L699 288 Q699 304 687 315 Q676 327 660 327 L191 327 L191 409 L628 409 Q644 409 655 420 Q667 432 667 448 L667 599 Q667 615 655 626 Q644 638 628 638 L175 638 Q159 638 147 626 Q136 615 136 599 L136 573 L53 573 L53 599 Q53 633 69 660 Q86 688 113 704 Q141 721 175 721 L628 721 Q662 721 689 704 Q717 688 733 660 Q749 633 749 599 L749 448 Q749 434 745 420 Q742 407 737 396 Q762 372 771 343 Q781 314 781 288 L781 121 Q781 88 764 60 Q748 33 720 16 Q693 0 660 0 L175 0 L175 0 Z" transform="translate(520.18,70.0) scale(0.05104,-0.05104)"/>
  </g>
</svg>
